<svg xmlns="http://www.w3.org/2000/svg" version="1.1" viewBox="-5.0 -10.0 110.0 135.0">
 <path d="m80.16 46.801c0-18.102-14.73-32.828-32.828-32.828-18.102-0.003906-32.832 14.727-32.832 32.828 0 18.102 14.73 32.828 32.828 32.828 7.6797 0 14.75-2.6602 20.34-7.0898l12.711 12.621 4.2305-4.2617-12.59-12.5c5.0586-5.7773 8.1406-13.328 8.1406-21.598zm-59.66 0c0-14.789 12.039-26.828 26.828-26.828 14.793-0.003906 26.832 12.027 26.832 26.828s-12.031 26.828-26.832 26.828c-14.797 0-26.828-12.039-26.828-26.828z"/>
<text x="0.0" y="117.5" font-size="5.0" font-weight="bold" font-family="Arbeit Regular, Helvetica, Arial-Unicode, Arial, Sans-serif" fill="#000000">Created by Fharaz</text><text x="0.0" y="122.5" font-size="5.0" font-weight="bold" font-family="Arbeit Regular, Helvetica, Arial-Unicode, Arial, Sans-serif" fill="#000000">from Noun Project</text></svg>